<svg width="146" height="35" viewBox="0 0 146 35" fill="none" xmlns="http://www.w3.org/2000/svg">
<circle cx="16" cy="17.3" r="16" fill="#FAB51A"/>
<path d="M7 12.2375L16 8.3L25 11.675V20.3341L19.1091 14.7091L14.6909 18.9705V16.0727H11.2545V22.55L7 26.3V12.2375Z" fill="white"/>
<path d="M41.608 26.3V9.98H45.016L51.064 19.676L52.192 21.908L52.072 9.98H55.288V26.3H51.904L45.856 16.628L44.704 14.348L44.848 26.3H41.608ZM70.0739 22.1C69.3779 25.076 67.0739 26.66 64.0019 26.66C60.1139 26.66 57.7379 24.092 57.7379 19.892C57.7379 15.524 60.1379 13.076 63.8819 13.076C67.6499 13.076 69.9779 15.62 69.9779 19.772V20.492H60.9059C61.0499 22.844 62.1299 24.14 64.0019 24.14C65.4419 24.14 66.4259 23.468 66.8339 22.1H70.0739ZM63.8819 15.596C62.2499 15.596 61.2659 16.628 60.9779 18.572H66.7619C66.4739 16.652 65.4899 15.596 63.8819 15.596ZM79.7356 26.3L77.3356 22.7L76.7356 21.548L76.1116 22.7L73.7836 26.3H70.4716L75.0556 19.652L70.8076 13.436H74.4316L76.4716 16.58L77.0956 17.756L77.7196 16.58L79.7356 13.436H83.0236L78.7756 19.652L83.3596 26.3H79.7356ZM85.3006 22.292V15.812H83.6446V13.436H85.3006V10.484H88.3726V13.436H91.0846V15.812H88.3726V22.028C88.3726 23.372 88.7566 24.092 90.4606 24.092H91.0366V26.348C90.7006 26.516 90.0046 26.66 89.1646 26.66C86.5486 26.66 85.3006 25.172 85.3006 22.292ZM92.1168 28.964V26.66H101.381V28.964H92.1168ZM116.33 26.3H114.074L113.81 24.236C112.802 25.892 111.098 26.66 109.082 26.66C104.594 26.66 101.642 23.444 101.642 18.164C101.642 12.908 104.594 9.62 109.37 9.62C112.754 9.62 115.61 11.468 116.354 15.02H112.97C112.466 13.268 111.098 12.308 109.274 12.308C106.538 12.308 104.954 14.516 104.954 18.164C104.954 21.812 106.61 23.972 109.394 23.972C111.41 23.972 113.042 22.82 113.258 20.108H109.73V17.66H116.33V26.3ZM130.8 22.1C130.104 25.076 127.8 26.66 124.728 26.66C120.84 26.66 118.464 24.092 118.464 19.892C118.464 15.524 120.864 13.076 124.608 13.076C128.376 13.076 130.704 15.62 130.704 19.772V20.492H121.632C121.776 22.844 122.856 24.14 124.728 24.14C126.168 24.14 127.152 23.468 127.56 22.1H130.8ZM124.608 15.596C122.976 15.596 121.992 16.628 121.704 18.572H127.488C127.2 16.652 126.216 15.596 124.608 15.596ZM133.01 26.3V13.436H136.082V15.164C136.922 13.772 138.266 13.076 139.898 13.076C142.466 13.076 144.218 14.612 144.218 17.732V26.3H141.146V18.356C141.146 16.604 140.402 15.62 138.842 15.62C137.138 15.62 136.082 17.108 136.082 18.836V26.3H133.01Z" fill="white"/>
</svg>
