<svg width="146" height="34" viewBox="0 0 146 34" fill="none" xmlns="http://www.w3.org/2000/svg">
<circle cx="16" cy="17" r="16" fill="#FAB51A"/>
<path d="M7 11.9375L16 8L25 11.375V20.0341L19.1091 14.4091L14.6909 18.6705V15.7727H11.2545V22.25L7 26V11.9375Z" fill="white"/>
<path d="M41.608 26V9.68H45.016L51.064 19.376L52.192 21.608L52.072 9.68H55.288V26H51.904L45.856 16.328L44.704 14.048L44.848 26H41.608ZM70.0739 21.8C69.3779 24.776 67.0739 26.36 64.0019 26.36C60.1139 26.36 57.7379 23.792 57.7379 19.592C57.7379 15.224 60.1379 12.776 63.8819 12.776C67.6499 12.776 69.9779 15.32 69.9779 19.472V20.192H60.9059C61.0499 22.544 62.1299 23.84 64.0019 23.84C65.4419 23.84 66.4259 23.168 66.8339 21.8H70.0739ZM63.8819 15.296C62.2499 15.296 61.2659 16.328 60.9779 18.272H66.7619C66.4739 16.352 65.4899 15.296 63.8819 15.296ZM79.7356 26L77.3356 22.4L76.7356 21.248L76.1116 22.4L73.7836 26H70.4716L75.0556 19.352L70.8076 13.136H74.4316L76.4716 16.28L77.0956 17.456L77.7196 16.28L79.7356 13.136H83.0236L78.7756 19.352L83.3596 26H79.7356ZM85.3006 21.992V15.512H83.6446V13.136H85.3006V10.184H88.3726V13.136H91.0846V15.512H88.3726V21.728C88.3726 23.072 88.7566 23.792 90.4606 23.792H91.0366V26.048C90.7006 26.216 90.0046 26.36 89.1646 26.36C86.5486 26.36 85.3006 24.872 85.3006 21.992ZM92.1168 28.664V26.36H101.381V28.664H92.1168ZM116.33 26H114.074L113.81 23.936C112.802 25.592 111.098 26.36 109.082 26.36C104.594 26.36 101.642 23.144 101.642 17.864C101.642 12.608 104.594 9.32 109.37 9.32C112.754 9.32 115.61 11.168 116.354 14.72H112.97C112.466 12.968 111.098 12.008 109.274 12.008C106.538 12.008 104.954 14.216 104.954 17.864C104.954 21.512 106.61 23.672 109.394 23.672C111.41 23.672 113.042 22.52 113.258 19.808H109.73V17.36H116.33V26ZM130.8 21.8C130.104 24.776 127.8 26.36 124.728 26.36C120.84 26.36 118.464 23.792 118.464 19.592C118.464 15.224 120.864 12.776 124.608 12.776C128.376 12.776 130.704 15.32 130.704 19.472V20.192H121.632C121.776 22.544 122.856 23.84 124.728 23.84C126.168 23.84 127.152 23.168 127.56 21.8H130.8ZM124.608 15.296C122.976 15.296 121.992 16.328 121.704 18.272H127.488C127.2 16.352 126.216 15.296 124.608 15.296ZM133.01 26V13.136H136.082V14.864C136.922 13.472 138.266 12.776 139.898 12.776C142.466 12.776 144.218 14.312 144.218 17.432V26H141.146V18.056C141.146 16.304 140.402 15.32 138.842 15.32C137.138 15.32 136.082 16.808 136.082 18.536V26H133.01Z" fill="black"/>
</svg>
