<svg width="21" height="21" viewBox="0 0 21 21" fill="none" xmlns="http://www.w3.org/2000/svg">
<path fill-rule="evenodd" clip-rule="evenodd" d="M7.11018 6.02613C7.11055 6.02613 7.11093 6.02613 7.1113 6.02613C7.11168 6.02613 7.11205 6.02613 7.11243 6.02613L14.0546 6.02613C14.055 6.02613 14.0554 6.02613 14.0557 6.02613C14.0561 6.02613 14.0565 6.02613 14.0569 6.02613H16.6599C17.2217 6.02613 17.3967 6.03003 17.5278 6.05914C18.0536 6.17596 18.4642 6.58661 18.5811 7.11242C18.6102 7.24347 18.6141 7.41846 18.6141 7.9803C18.6141 8.54213 18.6102 8.71712 18.5811 8.84817C18.4642 9.37398 18.0536 9.78463 17.5278 9.90145C17.3967 9.93056 17.2217 9.93446 16.6599 9.93446H14.7056V9.71912C14.7056 9.36013 14.4146 9.06912 14.0556 9.06912C13.6966 9.06912 13.4056 9.36013 13.4056 9.71912V9.93446L7.7613 9.93446V9.71912C7.7613 9.36013 7.47029 9.06912 7.1113 9.06912C6.75232 9.06912 6.4613 9.36013 6.4613 9.71912V9.93446H4.50714C3.9453 9.93446 3.77032 9.93056 3.63926 9.90145C3.11345 9.78463 2.7028 9.37398 2.58599 8.84817C2.55687 8.71712 2.55297 8.54213 2.55297 7.9803C2.55297 7.41846 2.55687 7.24347 2.58599 7.11242C2.7028 6.58661 3.11345 6.17596 3.63926 6.05914C3.77032 6.03003 3.9453 6.02613 4.50714 6.02613L7.11018 6.02613ZM6.4613 11.2345H4.50714L4.43104 11.2345C4.01101 11.2347 3.69551 11.2348 3.42103 11.1835L3.42103 11.8781C3.42103 13.0298 3.42153 13.8544 3.47438 14.5012C3.5266 15.1404 3.62669 15.5484 3.79425 15.8773C4.12255 16.5216 4.64639 17.0454 5.29071 17.3737C5.61957 17.5413 6.02762 17.6414 6.66681 17.6936C7.31359 17.7465 8.13822 17.747 9.28984 17.747H11.8772C13.0288 17.747 13.8535 17.7465 14.5002 17.6936C15.1394 17.6414 15.5475 17.5413 15.8763 17.3737C16.5207 17.0454 17.0445 16.5216 17.3728 15.8773C17.5404 15.5484 17.6404 15.1404 17.6927 14.5012C17.7455 13.8544 17.746 13.0298 17.746 11.8781V11.1835C17.4715 11.2348 17.156 11.2347 16.736 11.2345L16.6599 11.2345H14.7056V11.4552C14.7056 11.8142 14.4146 12.1052 14.0556 12.1052C13.6966 12.1052 13.4056 11.8142 13.4056 11.4552V11.2345L7.7613 11.2345V11.4552C7.7613 11.8142 7.47029 12.1052 7.1113 12.1052C6.75232 12.1052 6.4613 11.8142 6.4613 11.4552V11.2345ZM19.0436 10.5274C19.0452 10.5462 19.046 10.5652 19.046 10.5845V11.8781V11.9071V11.9071V11.9072V11.9072V11.9073C19.046 13.0236 19.046 13.9012 18.9884 14.607C18.9296 15.3266 18.8076 15.9248 18.5311 16.4675C18.0782 17.3564 17.3555 18.0791 16.4665 18.532C15.9239 18.8086 15.3257 18.9305 14.6061 18.9893C13.9002 19.047 13.0226 19.047 11.9064 19.047H11.9063H11.9063H11.9062H11.9062H11.8772H9.28984H9.26089H9.26084H9.26079H9.26074H9.26069C8.14441 19.047 7.26681 19.047 6.56095 18.9893C5.84136 18.9305 5.24319 18.8086 4.70052 18.532C3.81159 18.0791 3.08887 17.3564 2.63594 16.4675C2.35944 15.9248 2.23749 15.3266 2.1787 14.607C2.12102 13.9011 2.12102 13.0235 2.12103 11.9071L2.12103 11.8781V10.5845C2.12103 10.5652 2.12186 10.5462 2.1235 10.5274C1.72564 10.1623 1.43878 9.67856 1.31693 9.13011C1.25262 8.84065 1.25276 8.5093 1.25295 8.0564L1.25297 7.9803L1.25295 7.90419C1.25276 7.45129 1.25262 7.11994 1.31693 6.83048C1.54323 5.81188 2.33873 5.01638 3.35732 4.79009C3.64678 4.72578 3.97814 4.72592 4.43103 4.72611H4.43104L4.50714 4.72613H6.51226C6.82395 2.75832 8.52805 1.25391 10.5835 1.25391C12.639 1.25391 14.3431 2.75832 14.6548 4.72613H16.6599L16.736 4.72611C17.1889 4.72592 17.5203 4.72578 17.8097 4.79009C18.8283 5.01638 19.6238 5.81188 19.8501 6.83048C19.9144 7.11994 19.9143 7.45129 19.9141 7.90418L19.9141 7.9803L19.9141 8.05641C19.9143 8.5093 19.9144 8.84065 19.8501 9.13011C19.7283 9.67856 19.4414 10.1623 19.0436 10.5274ZM13.3305 4.72613C13.037 3.4808 11.9185 2.55391 10.5835 2.55391C9.24855 2.55391 8.13007 3.4808 7.83652 4.72613L13.3305 4.72613Z" fill="black"/>
</svg>
