<svg width="22" height="22" viewBox="0 0 22 22" fill="none" xmlns="http://www.w3.org/2000/svg">
<path fill-rule="evenodd" clip-rule="evenodd" d="M10.7362 2.5935C10.9043 2.5188 11.0962 2.5188 11.2642 2.5935L19.0767 6.06572C19.3115 6.17005 19.4627 6.40282 19.4627 6.6597C19.4627 6.91657 19.3115 7.14935 19.0767 7.25368L11.2642 10.7259C11.0962 10.8006 10.9043 10.8006 10.7362 10.7259L2.92375 7.25368C2.68902 7.14935 2.53774 6.91657 2.53774 6.6597C2.53774 6.40282 2.68902 6.17005 2.92375 6.06572L10.7362 2.5935ZM4.78818 6.6597L11.0002 9.42061L17.2123 6.6597L11.0002 3.89878L4.78818 6.6597ZM2.59378 10.7392C2.73958 10.4112 3.12371 10.2635 3.45175 10.4093L11.0003 13.7641L18.5488 10.4093C18.8768 10.2635 19.2609 10.4112 19.4067 10.7392C19.5525 11.0673 19.4048 11.4514 19.0767 11.5972L11.2642 15.0694C11.0962 15.1441 10.9043 15.1441 10.7363 15.0694L2.92377 11.5972C2.59573 11.4514 2.44798 11.0673 2.59378 10.7392ZM3.45175 14.7452C3.12371 14.5994 2.73958 14.7471 2.59378 15.0752C2.44798 15.4032 2.59573 15.7873 2.92377 15.9331L10.7363 19.4054C10.9043 19.4801 11.0962 19.4801 11.2642 19.4054L19.0767 15.9331C19.4048 15.7873 19.5525 15.4032 19.4067 15.0752C19.2609 14.7471 18.8768 14.5994 18.5488 14.7452L11.0003 18.1001L3.45175 14.7452Z" fill="black"/>
</svg>
