<svg width="22" height="22" viewBox="0 0 22 22" fill="none" xmlns="http://www.w3.org/2000/svg">
<path fill-rule="evenodd" clip-rule="evenodd" d="M11.0001 3.84108C7.04436 3.84108 3.8376 7.04784 3.8376 11.0036C3.8376 11.7378 3.99276 12.4902 4.21604 13.1885L4.21748 13.193C4.40738 13.7868 4.55151 14.2376 4.65334 14.5681C4.75131 14.886 4.82218 15.1301 4.85145 15.2876C4.9493 15.8143 5.00383 16.2434 4.9421 16.6837C4.88038 17.1241 4.70998 17.5217 4.4711 18.0011C4.44574 18.052 4.41612 18.1067 4.38187 18.1661H11.0001C14.9558 18.1661 18.1626 14.9593 18.1626 11.0036C18.1626 7.04784 14.9558 3.84108 11.0001 3.84108ZM2.65178 18.448C2.57976 18.5526 2.5376 18.6794 2.5376 18.8161C2.5376 19.1751 2.82861 19.4661 3.1876 19.4661H11.0001C15.6738 19.4661 19.4626 15.6773 19.4626 11.0036C19.4626 6.32987 15.6738 2.54108 11.0001 2.54108C6.32639 2.54108 2.5376 6.32987 2.5376 11.0036C2.5376 11.9124 2.72799 12.8031 2.9778 13.5844C3.16938 14.1835 3.31142 14.6278 3.41098 14.9509C3.51465 15.2873 3.56041 15.4556 3.57332 15.5251C3.6673 16.031 3.68538 16.2843 3.65469 16.5033C3.624 16.7223 3.53695 16.9609 3.30752 17.4214C3.22827 17.5805 3.062 17.8326 2.65178 18.448ZM6.87788 9.26747C6.87788 8.90848 7.16889 8.61747 7.52788 8.61747H14.4723C14.8313 8.61747 15.1223 8.90848 15.1223 9.26747C15.1223 9.62645 14.8313 9.91747 14.4723 9.91747H7.52788C7.16889 9.91747 6.87788 9.62645 6.87788 9.26747ZM7.52788 12.0897C7.16889 12.0897 6.87788 12.3807 6.87788 12.7397C6.87788 13.0987 7.16889 13.3897 7.52788 13.3897H11.0001C11.3591 13.3897 11.6501 13.0987 11.6501 12.7397C11.6501 12.3807 11.3591 12.0897 11.0001 12.0897H7.52788Z" fill="black"/>
</svg>
