<svg width="37" height="36" viewBox="0 0 37 36" fill="none" xmlns="http://www.w3.org/2000/svg">
<path d="M14 33L14.0029 26.9964C14.0035 25.6005 14.0039 24.9025 14.2319 24.352C14.5366 23.6164 15.1212 23.0321 15.8568 22.7279C16.4076 22.5 17.1056 22.5 18.5015 22.5C19.8979 22.5 20.5961 22.5 21.147 22.728C21.8829 23.0325 22.4675 23.6171 22.772 24.353C23 24.9039 23 25.6022 23 26.9985V33" stroke="black" stroke-width="2"/>
<path d="M11.1327 7.14365L9.6327 8.31447C7.35772 10.0902 6.22022 10.9781 5.61011 12.23C5 13.4819 5 14.9281 5 17.8204V20.9573C5 26.6343 5 29.4728 6.75735 31.2365C8.51472 33 11.3431 33 17 33H20C25.6568 33 28.4853 33 30.2426 31.2365C32 29.4728 32 26.6343 32 20.9573V17.8204C32 14.9281 32 13.4819 31.3899 12.23C30.7797 10.9781 29.6423 10.0902 27.3673 8.31447L25.8673 7.14365C22.3282 4.38122 20.5586 3 18.5 3C16.4414 3 14.6718 4.38122 11.1327 7.14365Z" stroke="black" stroke-width="2" stroke-linejoin="round"/>
</svg>
