<svg width="36" height="36" viewBox="0 0 36 36" fill="none" xmlns="http://www.w3.org/2000/svg">
<path d="M18 3H9C5.277 3 4.5 3.777 4.5 7.5V33H22.5V7.5C22.5 3.777 21.723 3 18 3Z" stroke="black" stroke-width="2" stroke-linejoin="round"/>
<path d="M27 12H22.5V33H31.5V16.5C31.5 12.777 30.723 12 27 12Z" stroke="black" stroke-width="2" stroke-linejoin="round"/>
<path d="M12 9H15M12 13.5H15M12 18H15" stroke="black" stroke-width="2" stroke-linecap="round" stroke-linejoin="round"/>
<path d="M17.25 33V27C17.25 25.5858 17.25 24.8787 16.8106 24.4394C16.3713 24 15.6642 24 14.25 24H12.75C11.3358 24 10.6287 24 10.1893 24.4394C9.75 24.8787 9.75 25.5858 9.75 27V33" stroke="black" stroke-width="2" stroke-linejoin="round"/>
</svg>
