<svg width="124" height="21" viewBox="0 0 124 21" fill="none" xmlns="http://www.w3.org/2000/svg">
<g clip-path="url(#clip0_16888_811)">
<path d="M19.9478 7.78126C19.8839 7.58307 19.763 7.40808 19.6003 7.27811C19.4376 7.14814 19.2402 7.06894 19.0328 7.05038L13.2602 6.52619L10.9776 1.18347C10.8092 0.79194 10.426 0.538574 10.0001 0.538574C9.57422 0.538574 9.19089 0.791979 9.0226 1.18445L6.73997 6.52623L0.9665 7.05038C0.759313 7.06936 0.562253 7.14873 0.39975 7.27865C0.237248 7.40857 0.116451 7.58333 0.052336 7.78126C-0.079347 8.18627 0.0422577 8.63046 0.363164 8.91047L4.72656 12.7371L3.43988 18.4048C3.34574 18.8216 3.50746 19.2524 3.85325 19.5023C4.03908 19.6366 4.25654 19.705 4.47581 19.705C4.66488 19.705 4.85238 19.654 5.02074 19.5533L10.0001 16.5773L14.9776 19.5533C15.3419 19.7724 15.801 19.7524 16.146 19.5023C16.3149 19.38 16.4442 19.2108 16.5177 19.0157C16.5912 18.8206 16.6057 18.6082 16.5594 18.4048L15.2728 12.7371L19.6361 8.91125C19.7931 8.77416 19.9063 8.59397 19.9617 8.39308C20.0171 8.19218 20.0123 7.97943 19.9478 7.78126Z" fill="#FFC107"/>
</g>
<g clip-path="url(#clip1_16888_811)">
<path d="M45.9478 7.78126C45.8839 7.58307 45.763 7.40808 45.6003 7.27811C45.4376 7.14814 45.2402 7.06894 45.0328 7.05038L39.2602 6.52619L36.9776 1.18347C36.8092 0.79194 36.426 0.538574 36.0001 0.538574C35.5742 0.538574 35.1909 0.791979 35.0226 1.18445L32.74 6.52623L26.9665 7.05038C26.7593 7.06936 26.5623 7.14873 26.3998 7.27865C26.2372 7.40857 26.1165 7.58333 26.0523 7.78126C25.9207 8.18627 26.0423 8.63046 26.3632 8.91047L30.7266 12.7371L29.4399 18.4048C29.3457 18.8216 29.5075 19.2524 29.8533 19.5023C30.0391 19.6366 30.2565 19.705 30.4758 19.705C30.6649 19.705 30.8524 19.654 31.0207 19.5533L36.0001 16.5773L40.9776 19.5533C41.3419 19.7724 41.801 19.7524 42.146 19.5023C42.3149 19.38 42.4442 19.2108 42.5177 19.0157C42.5912 18.8206 42.6057 18.6082 42.5594 18.4048L41.2728 12.7371L45.6361 8.91125C45.7931 8.77416 45.9063 8.59397 45.9617 8.39308C46.0171 8.19218 46.0123 7.97943 45.9478 7.78126Z" fill="#FFC107"/>
</g>
<g clip-path="url(#clip2_16888_811)">
<path d="M71.9478 7.78126C71.8839 7.58307 71.763 7.40808 71.6003 7.27811C71.4376 7.14814 71.2402 7.06894 71.0328 7.05038L65.2602 6.52619L62.9776 1.18347C62.8092 0.79194 62.426 0.538574 62.0001 0.538574C61.5742 0.538574 61.1909 0.791979 61.0226 1.18445L58.74 6.52623L52.9665 7.05038C52.7593 7.06936 52.5623 7.14873 52.3998 7.27865C52.2372 7.40857 52.1165 7.58333 52.0523 7.78126C51.9207 8.18627 52.0423 8.63046 52.3632 8.91047L56.7266 12.7371L55.4399 18.4048C55.3457 18.8216 55.5075 19.2524 55.8533 19.5023C56.0391 19.6366 56.2565 19.705 56.4758 19.705C56.6649 19.705 56.8524 19.654 57.0207 19.5533L62.0001 16.5773L66.9776 19.5533C67.3419 19.7724 67.801 19.7524 68.146 19.5023C68.3149 19.38 68.4442 19.2108 68.5177 19.0157C68.5912 18.8206 68.6057 18.6082 68.5594 18.4048L67.2728 12.7371L71.6361 8.91125C71.7931 8.77416 71.9063 8.59397 71.9617 8.39308C72.0171 8.19218 72.0123 7.97943 71.9478 7.78126Z" fill="#FFC107"/>
</g>
<g clip-path="url(#clip3_16888_811)">
<path d="M97.9478 7.78126C97.8839 7.58307 97.763 7.40808 97.6003 7.27811C97.4376 7.14814 97.2402 7.06894 97.0328 7.05038L91.2602 6.52619L88.9776 1.18347C88.8092 0.79194 88.426 0.538574 88.0001 0.538574C87.5742 0.538574 87.1909 0.791979 87.0226 1.18445L84.74 6.52623L78.9665 7.05038C78.7593 7.06936 78.5623 7.14873 78.3998 7.27865C78.2372 7.40857 78.1165 7.58333 78.0523 7.78126C77.9207 8.18627 78.0423 8.63046 78.3632 8.91047L82.7266 12.7371L81.4399 18.4048C81.3457 18.8216 81.5075 19.2524 81.8533 19.5023C82.0391 19.6366 82.2565 19.705 82.4758 19.705C82.6649 19.705 82.8524 19.654 83.0207 19.5533L88.0001 16.5773L92.9776 19.5533C93.3419 19.7724 93.801 19.7524 94.146 19.5023C94.3149 19.38 94.4442 19.2108 94.5177 19.0157C94.5912 18.8206 94.6057 18.6082 94.5594 18.4048L93.2728 12.7371L97.6361 8.91125C97.7931 8.77416 97.9063 8.59397 97.9617 8.39308C98.0171 8.19218 98.0123 7.97943 97.9478 7.78126Z" fill="#FFC107"/>
</g>
<g clip-path="url(#clip4_16888_811)">
<path d="M123.948 7.78126C123.884 7.58307 123.763 7.40808 123.6 7.27811C123.438 7.14814 123.24 7.06894 123.033 7.05038L117.26 6.52619L114.978 1.18347C114.809 0.79194 114.426 0.538574 114 0.538574C113.574 0.538574 113.191 0.791979 113.023 1.18445L110.74 6.52623L104.966 7.05038C104.759 7.06936 104.562 7.14873 104.4 7.27865C104.237 7.40857 104.116 7.58333 104.052 7.78126C103.921 8.18627 104.042 8.63046 104.363 8.91047L108.727 12.7371L107.44 18.4048C107.346 18.8216 107.507 19.2524 107.853 19.5023C108.039 19.6366 108.257 19.705 108.476 19.705C108.665 19.705 108.852 19.654 109.021 19.5533L114 16.5773L118.978 19.5533C119.342 19.7724 119.801 19.7524 120.146 19.5023C120.315 19.38 120.444 19.2108 120.518 19.0157C120.591 18.8206 120.606 18.6082 120.559 18.4048L119.273 12.7371L123.636 8.91125C123.793 8.77416 123.906 8.59397 123.962 8.39308C124.017 8.19218 124.012 7.97943 123.948 7.78126Z" fill="#FFC107"/>
</g>
<defs>
<clipPath id="clip0_16888_811">
<rect width="20" height="20" fill="white" transform="translate(0 0.5)"/>
</clipPath>
<clipPath id="clip1_16888_811">
<rect width="20" height="20" fill="white" transform="translate(26 0.5)"/>
</clipPath>
<clipPath id="clip2_16888_811">
<rect width="20" height="20" fill="white" transform="translate(52 0.5)"/>
</clipPath>
<clipPath id="clip3_16888_811">
<rect width="20" height="20" fill="white" transform="translate(78 0.5)"/>
</clipPath>
<clipPath id="clip4_16888_811">
<rect width="20" height="20" fill="white" transform="translate(104 0.5)"/>
</clipPath>
</defs>
</svg>
