<svg width="28" height="28" viewBox="0 0 28 28" fill="none" xmlns="http://www.w3.org/2000/svg">
<g clip-path="url(#clip0_16895_398)">
<path d="M14.0469 9.76899C14.4323 9.76899 14.7444 9.45673 14.7444 9.07151C14.7444 8.68634 14.4323 8.37402 14.0469 8.37402C10.9654 8.37402 8.46729 10.8721 8.46729 13.9538C8.46729 17.0354 10.9654 19.5335 14.0469 19.5335C17.1286 19.5335 19.6268 17.0354 19.6268 13.9538C19.6268 13.5685 19.3144 13.2564 18.9293 13.2564C18.5441 13.2564 18.2318 13.5685 18.2318 13.9538C18.2318 16.265 16.3583 18.1388 14.0469 18.1388C11.7357 18.1388 9.86204 16.265 9.86204 13.9538C9.86204 11.6425 11.7357 9.76899 14.0469 9.76899Z" fill="black"/>
<path d="M27.3546 9.81065C27.2334 9.44468 26.8387 9.24627 26.4725 9.36735C26.1149 9.4857 25.9158 9.86637 26.0224 10.2276C28.1082 16.8698 24.4147 23.9452 17.7725 26.031C11.1306 28.1168 4.05517 24.4233 1.96939 17.7811C-0.116659 11.1389 3.57709 4.06355 10.219 1.97772C12.6777 1.20569 15.3139 1.20569 17.7725 1.97772C18.1417 2.08901 18.5311 1.8801 18.6424 1.51096C18.752 1.14735 18.551 0.763057 18.1897 0.645589C10.8144 -1.6684 2.95951 2.43469 0.645574 9.81021C-1.66841 17.1855 2.43484 25.0404 9.8102 27.3544C17.1857 29.6684 25.0404 25.5653 27.3544 18.1897C28.2101 15.4623 28.2102 12.5382 27.3546 9.81065H27.3546Z" fill="black"/>
<path d="M15.375 4.9827C15.3787 4.58556 15.0736 4.25361 14.6776 4.22391C14.4693 4.2062 14.2608 4.18848 14.0469 4.18848C8.654 4.18848 4.28223 8.56025 4.28223 13.9531C4.28223 19.3459 8.654 23.7177 14.0469 23.7177C19.4396 23.7177 23.8114 19.3459 23.8114 13.9532C23.8114 13.7009 23.796 13.4488 23.7651 13.1985C23.7093 12.8156 23.3538 12.5505 22.971 12.6063C22.5882 12.6618 22.3231 13.0176 22.3787 13.4004C22.3808 13.4149 22.3834 13.4291 22.3863 13.4437C22.4015 13.6127 22.4164 13.7801 22.4164 13.9528C22.4167 18.5753 18.6695 22.3225 14.0471 22.3229C9.42455 22.3231 5.67736 18.5757 5.6772 13.9534C5.67698 9.33102 9.42389 5.58361 14.0465 5.58345H14.0467C14.2198 5.58345 14.3874 5.59838 14.556 5.6133L14.6867 5.62424C15.0512 5.63983 15.3592 5.35698 15.3746 4.99255C15.3748 4.9891 15.3748 4.98593 15.375 4.9827Z" fill="black"/>
<path d="M18.2317 6.28153V8.78267L13.5537 13.4606C13.2767 13.7282 13.269 14.1698 13.5367 14.4469C13.8043 14.7239 14.2459 14.7316 14.5229 14.464C14.5287 14.4584 14.5345 14.4527 14.5401 14.4469L19.218 9.76896H21.7191C21.9041 9.76896 22.0814 9.69545 22.2123 9.56453L26.397 5.37963C26.6694 5.10728 26.6694 4.66574 26.397 4.39334C26.3323 4.32859 26.2554 4.27723 26.1708 4.24219C26.0862 4.20715 25.9955 4.18913 25.904 4.18913H23.8115V2.09668C23.8115 1.71152 23.4992 1.3992 23.1138 1.39941C22.929 1.39946 22.7517 1.47291 22.621 1.60362L18.4361 5.78852C18.3713 5.85323 18.3199 5.93008 18.2848 6.01467C18.2497 6.09927 18.2317 6.18995 18.2317 6.28153ZM19.6267 6.57039L22.4165 3.78045V4.88662C22.4165 5.27178 22.7289 5.5841 23.114 5.5841H24.2202L21.4302 8.37399H19.6267V6.57039Z" fill="black"/>
</g>
<defs>
<clipPath id="clip0_16895_398">
<rect width="28" height="28" fill="white"/>
</clipPath>
</defs>
</svg>
