<svg width="28" height="28" viewBox="0 0 28 28" fill="none" xmlns="http://www.w3.org/2000/svg">
<g clip-path="url(#clip0_16895_411)">
<mask id="mask0_16895_411" style="mask-type:luminance" maskUnits="userSpaceOnUse" x="0" y="0" width="28" height="28">
<path d="M27.4999 27.5V0.500082H0.5V27.5H27.4999Z" fill="white" stroke="white"/>
</mask>
<g mask="url(#mask0_16895_411)">
<path d="M10.744 11.2268L10.744 11.2268L10.741 11.2249C10.7348 11.2209 10.7275 11.2187 10.72 11.2188V11.2188H10.7187C10.693 11.2188 10.6719 11.2399 10.6719 11.2656C10.6719 11.2783 10.6763 11.2887 10.6839 11.2969L10.6839 11.2969L10.6851 11.2982C10.6893 11.3027 10.6943 11.3063 10.7 11.3088C10.7056 11.3112 10.7117 11.3125 10.7178 11.3125V11.3125H10.7187C10.7445 11.3125 10.7656 11.2913 10.7656 11.2656C10.7656 11.2565 10.7635 11.2496 10.7602 11.2437C10.7565 11.2372 10.7509 11.2312 10.744 11.2268Z" fill="black" stroke="black"/>
<path d="M14 0.547008V4.15637" stroke="black" stroke-linecap="round" stroke-linejoin="round"/>
<path d="M14 23.8438V27.4531" stroke="black" stroke-linecap="round" stroke-linejoin="round"/>
<path d="M3.625 4.71868L5.94538 7.03906" stroke="black" stroke-linecap="round" stroke-linejoin="round"/>
<path d="M22.0542 21.5075L24.3746 23.8279" stroke="black" stroke-linecap="round" stroke-linejoin="round"/>
<path d="M24.3746 4.71868L22.0542 7.03906" stroke="black" stroke-linecap="round" stroke-linejoin="round"/>
<path d="M5.94538 21.5075L3.625 23.8279" stroke="black" stroke-linecap="round" stroke-linejoin="round"/>
<path d="M26.0312 14C26.0312 14 21.2488 21.1094 14 21.1094C6.75116 21.1094 1.96875 14 1.96875 14C1.96875 14 6.75116 6.89067 14 6.89067C21.2488 6.89067 26.0312 14 26.0312 14Z" stroke="black" stroke-linecap="round" stroke-linejoin="round"/>
<path d="M12.4365 9.91268C12.4561 9.90502 12.4759 9.89791 12.4955 9.89081C12.5174 9.8826 12.5393 9.87495 12.5612 9.86729C12.5809 9.86018 12.6005 9.85362 12.6208 9.84706C12.6806 9.82674 12.7409 9.80814 12.8018 9.79127C12.8351 9.78143 12.8691 9.77213 12.9035 9.76338C12.9396 9.75409 12.9756 9.74534 13.0118 9.73713C13.0457 9.72948 13.0791 9.72182 13.113 9.71526C13.1403 9.70924 13.1676 9.70377 13.1955 9.69885C13.2196 9.69448 13.2437 9.6901 13.2677 9.68627C13.2808 9.68354 13.2945 9.68135 13.3081 9.67971C13.3328 9.67534 13.3574 9.67206 13.382 9.66877C13.3886 9.66768 13.3946 9.66659 13.4012 9.66604C13.4219 9.66276 13.4433 9.66002 13.4646 9.65729C13.4876 9.65456 13.5105 9.65182 13.5335 9.64963L13.5663 9.64635C13.5898 9.64362 13.6139 9.64143 13.6374 9.63979C13.6499 9.6387 13.6626 9.6376 13.6751 9.63706C13.6909 9.63542 13.7074 9.63432 13.7233 9.63377C13.7468 9.63213 13.7708 9.63104 13.7944 9.62995C13.825 9.62831 13.8556 9.62721 13.8868 9.62667C13.924 9.62557 13.9622 9.62502 14 9.62502C16.4161 9.62502 18.375 11.5839 18.375 14C18.375 14.7552 18.1836 15.4656 17.8467 16.0852C17.7963 16.1782 17.7425 16.2692 17.6853 16.3581C17.6504 16.4128 17.6143 16.4664 17.5771 16.5195C17.5733 16.5249 17.5694 16.5298 17.5656 16.5353C17.4858 16.6481 17.4004 16.7567 17.3096 16.8607C17.241 16.9403 17.1695 17.0172 17.0952 17.0915C17.0281 17.1589 16.9586 17.2241 16.8869 17.2867C16.5853 17.5525 16.2483 17.7752 15.8856 17.9484C15.8255 17.9774 15.7647 18.0048 15.7029 18.031C15.5714 18.0865 15.4373 18.1356 15.301 18.1781C15.1637 18.2208 15.0243 18.2569 14.8815 18.2859C14.5915 18.3453 14.2961 18.3752 14 18.375C11.5839 18.375 9.625 16.4161 9.625 14C9.625 13.9623 9.62555 13.9245 9.62664 13.8874C9.62719 13.8567 9.62823 13.8267 9.62992 13.796C9.6314 13.7595 9.63341 13.7231 9.63594 13.6867C9.63813 13.6604 9.63971 13.6342 9.6425 13.6079L9.64409 13.5888C9.64687 13.5576 9.65016 13.5264 9.65398 13.4958V13.4947C9.65776 13.4619 9.66164 13.4291 9.66656 13.3963C9.66984 13.3717 9.67312 13.347 9.6775 13.3224C9.68187 13.2896 9.68729 13.2579 9.69336 13.2256C9.6944 13.2169 9.69609 13.2087 9.69773 13.1999" stroke="black" stroke-linecap="round" stroke-linejoin="round"/>
<path d="M14 15.6406C13.0955 15.6406 12.3594 14.9045 12.3594 14C12.3594 13.0955 13.0955 12.3594 14 12.3594C14.9045 12.3594 15.6406 13.0955 15.6406 14C15.6406 14.9045 14.9045 15.6406 14 15.6406Z" stroke="black" stroke-linecap="round" stroke-linejoin="round"/>
</g>
</g>
<defs>
<clipPath id="clip0_16895_411">
<rect width="28" height="28" fill="white"/>
</clipPath>
</defs>
</svg>
