<svg width="28" height="28" viewBox="0 0 28 28" fill="none" xmlns="http://www.w3.org/2000/svg">
<path d="M24.842 14.2243L21.7958 9.52015C21.6804 9.34114 21.5218 9.19401 21.3347 9.09226C21.1476 8.99051 20.938 8.93741 20.725 8.93784H7.28459C7.07191 8.93743 6.86253 8.99039 6.67562 9.09186C6.48871 9.19334 6.33025 9.34009 6.21474 9.51867L3.15902 14.2234C2.84676 14.7041 2.89499 15.3388 3.27633 15.7668L13.0469 26.736C13.1666 26.8703 13.3134 26.9778 13.4775 27.0515C13.6417 27.1251 13.8195 27.1632 13.9995 27.1633C14.1794 27.1632 14.3573 27.1251 14.5215 27.0515C14.6856 26.9779 14.8324 26.8704 14.9521 26.7361L24.7238 15.7662C25.1046 15.3387 25.1532 14.7047 24.842 14.2243ZM20.1079 10.0315L17.546 13.9931L14.9826 10.0315H20.1079ZM16.5409 14.4531H11.458L13.9995 10.5255L16.5409 14.4531ZM13.0163 10.0316L10.46 13.9823L7.90448 10.0316H13.0163ZM6.89325 10.482L9.46192 14.4531H4.31402L6.89325 10.482ZM4.54502 15.5469H10.049L12.9593 24.9933L4.54502 15.5469ZM13.9995 24.6547L11.1935 15.5469H16.8054L13.9995 24.6547ZM15.0396 24.9936L17.9499 15.5469H23.4544L15.0396 24.9936ZM18.5511 14.4531L21.1174 10.4847L23.6871 14.4531H18.5511ZM1.65884 14.4531H0.546875C0.244891 14.4531 0 14.698 0 15C0 15.302 0.244891 15.5469 0.546875 15.5469H1.65884C1.96082 15.5469 2.20571 15.302 2.20571 15C2.20571 14.698 1.96082 14.4531 1.65884 14.4531ZM27.4531 14.4531H26.3412C26.0392 14.4531 25.7943 14.698 25.7943 15C25.7943 15.302 26.0392 15.5469 26.3412 15.5469H27.4531C27.7551 15.5469 28 15.302 28 15C28 14.698 27.7551 14.4531 27.4531 14.4531ZM23.9064 5.10337C23.6928 4.88981 23.3466 4.88981 23.133 5.10337L21.3164 6.91992C21.1029 7.13348 21.1029 7.47976 21.3164 7.69331C21.3672 7.74417 21.4274 7.7845 21.4938 7.81199C21.5602 7.83948 21.6313 7.85358 21.7032 7.85349C21.775 7.85358 21.8461 7.83948 21.9125 7.81199C21.9789 7.7845 22.0391 7.74417 22.0899 7.69331L23.9064 5.87676C24.12 5.6632 24.12 5.31698 23.9064 5.10337ZM6.7072 6.91019L4.8907 5.09358C4.6772 4.88002 4.33103 4.88002 4.11726 5.09358C3.9037 5.30713 3.9037 5.65341 4.11726 5.86697L5.93381 7.68352C5.98454 7.73438 6.04481 7.77472 6.11117 7.80221C6.17754 7.8297 6.24868 7.8438 6.32051 7.8437C6.39234 7.84379 6.46347 7.82968 6.52983 7.80219C6.5962 7.7747 6.65647 7.73437 6.7072 7.68352C6.92076 7.47002 6.92076 7.12369 6.7072 6.91019ZM14.0139 1C13.7119 1 13.467 1.24484 13.467 1.54688V5.11075C13.467 5.41279 13.7119 5.65763 14.0139 5.65763C14.3159 5.65763 14.5608 5.41279 14.5608 5.11075V1.54688C14.5608 1.24489 14.3159 1 14.0139 1ZM14.4003 6.57413C14.2986 6.47241 14.1575 6.4139 14.0137 6.4139C13.8698 6.4139 13.7287 6.47241 13.627 6.57413C13.5248 6.67692 13.4673 6.81584 13.4668 6.96077C13.4668 7.10515 13.5253 7.2457 13.627 7.34741C13.7287 7.44968 13.8698 7.50765 14.0137 7.50765C14.1575 7.50765 14.2986 7.44968 14.4003 7.34741C14.5025 7.2457 14.5605 7.1046 14.5605 6.96077C14.5605 6.81695 14.5025 6.67591 14.4003 6.57413Z" fill="black"/>
</svg>
