<svg width="48" height="48" viewBox="0 0 48 48" fill="none" xmlns="http://www.w3.org/2000/svg">
<mask id="mask0_16898_1053" style="mask-type:luminance" maskUnits="userSpaceOnUse" x="0" y="0" width="48" height="48">
<path d="M46.9999 47V1.00014H1V47H46.9999Z" fill="white" stroke="white" stroke-width="2"/>
</mask>
<g mask="url(#mask0_16898_1053)">
<path d="M26.054 17.5778L26.7867 16.8466L28.7044 14.9332C29.694 13.9459 29.694 12.3287 28.7044 11.3413C27.7149 10.3538 26.0941 10.3538 25.1045 11.3413L22.4541 13.9859" stroke="black" stroke-width="2" stroke-miterlimit="10" stroke-linecap="round" stroke-linejoin="round"/>
<path d="M38.3834 22.7896C37.5168 21.9249 36.0966 21.9249 35.2301 22.7896L31.8628 26.152C30.9963 27.0166 30.9963 28.431 31.8628 29.2956C32.7293 30.1603 34.1469 30.1603 35.0135 29.2956L38.3834 25.9332C39.25 25.0686 39.25 23.6542 38.3834 22.7896Z" stroke="black" stroke-width="2" stroke-miterlimit="10" stroke-linecap="round" stroke-linejoin="round"/>
<path d="M31.9675 18.8613L32.3339 18.4958C33.294 17.5057 33.2834 15.9125 32.3045 14.9331C31.3149 13.9457 29.6941 13.9457 28.7045 14.9331L27.3779 16.2568" stroke="black" stroke-width="2" stroke-miterlimit="10" stroke-linecap="round" stroke-linejoin="round"/>
<path d="M31.5743 39.9006C31.5235 38.6917 31.7534 37.4695 32.2697 36.3515L20.6354 24.7403M34.0162 29.8694L36.3911 32.239C39.2316 30.9368 42.7218 31.4492 45.054 33.7762C46.9156 35.6335 47.619 38.2274 47.1617 40.6399C46.6828 43.1723 45.3456 41.2563 45.0727 40.9841L41.8071 37.7257C40.6651 36.5862 38.8277 36.5382 37.6268 37.5843C36.5783 38.7825 36.6265 40.6159 37.7685 41.7554L41.0342 45.0138C41.307 45.2859 43.2274 46.6202 40.6892 47.0979C38.2714 47.5543 35.6717 46.8524 33.8103 44.995C33.245 44.4296 32.7712 43.7796 32.4061 43.0684M18.6455 14.5355L15.7302 11.624C17.0354 8.78999 16.5218 5.30747 14.1896 2.9805C12.3282 1.12313 9.72862 0.421231 7.31072 0.877604C4.77254 1.35526 6.69291 2.6896 6.96572 2.96176L10.2314 6.22012C11.3734 7.35965 11.4216 9.19302 10.3731 10.3911C9.17221 11.4373 7.33481 11.3892 6.19285 10.2498L2.92717 6.9914C2.65436 6.71915 1.31711 4.80309 0.838241 7.33565C0.381024 9.74811 1.08433 12.342 2.94592 14.1993C5.27813 16.5263 8.76834 17.0387 11.6088 15.7365L14.6952 18.816" stroke="black" stroke-width="2" stroke-miterlimit="10" stroke-linecap="round" stroke-linejoin="round"/>
<path d="M13.521 36.9279L17.5542 40.9521C18.1774 41.5739 18.1774 42.5906 17.5542 43.2125L13.9677 46.7911C13.3444 47.4128 12.3255 47.4128 11.7023 46.7911L1.79842 36.9092C1.17527 36.2874 1.17527 35.2706 1.79842 34.6488L5.385 31.0703C6.00816 30.4484 7.02712 30.4484 7.65037 31.0703L11.1968 34.6089" stroke="black" stroke-width="2" stroke-miterlimit="10" stroke-linecap="round" stroke-linejoin="round"/>
<path d="M17.5537 40.952L22.3304 36.1859C24.1198 34.4006 24.4674 34.7849 26.5803 35.0865C27.5271 35.2225 28.8777 34.7181 29.9636 34.051" stroke="black" stroke-width="2" stroke-miterlimit="10" stroke-linecap="round" stroke-linejoin="round"/>
<path d="M35.2301 19.1976C34.2405 18.2102 32.6197 18.2102 31.6302 19.1976L28.9903 21.8315C27.998 22.8216 27.998 24.4361 28.9903 25.4234C29.9799 26.4135 31.6006 26.4135 32.5903 25.4234L35.2301 22.7895C36.2223 21.8022 36.2223 20.185 35.2301 19.1976Z" stroke="black" stroke-width="2" stroke-miterlimit="10" stroke-linecap="round" stroke-linejoin="round"/>
<path d="M29.3169 21.5086C29.3892 20.8068 28.2284 19.7473 27.0355 18.5571L21.7908 13.324C21.2612 12.7956 20.3892 12.7956 19.8571 13.3267L15.5269 17.6472C14.5427 18.6292 14.1013 20.0729 14.1789 21.3699C14.2993 23.3553 13.3738 25.3621 10.6298 28.0974L7.65039 31.0703M20.622 19.3417C20.6674 19.3897 22.4406 21.1564 22.4861 21.2018C23.8902 22.5574 26.7226 23.7262 28.5493 22.424" stroke="black" stroke-width="2" stroke-miterlimit="10" stroke-linecap="round" stroke-linejoin="round"/>
<path d="M20.6218 19.3417C22.1863 20.9028 21.7531 23.865 19.6562 25.9572" stroke="black" stroke-width="2" stroke-miterlimit="10" stroke-linecap="round" stroke-linejoin="round"/>
</g>
</svg>
