<svg width="48" height="48" viewBox="0 0 48 48" fill="none" xmlns="http://www.w3.org/2000/svg">
<path d="M45.8448 39.7151H44.4863V29.1318C44.4863 29.0393 44.4681 28.9477 44.4327 28.8622C44.3973 28.7767 44.3454 28.6991 44.28 28.6337C44.2146 28.5682 44.1369 28.5163 44.0514 28.4809C43.9659 28.4455 43.8743 28.4273 43.7818 28.4273C43.6893 28.4273 43.5977 28.4455 43.5122 28.4809C43.4267 28.5163 43.3491 28.5682 43.2836 28.6337C43.2182 28.6991 43.1663 28.7767 43.1309 28.8622C43.0955 28.9477 43.0773 29.0393 43.0773 29.1318V39.7151H18.5117V29.3101C18.5117 29.1233 18.4375 28.9441 18.3053 28.812C18.1732 28.6798 17.994 28.6056 17.8072 28.6056H8.54981C8.36296 28.6056 8.18376 28.6798 8.05163 28.812C7.91951 28.9441 7.84528 29.1233 7.84528 29.3101V39.7151H4.50694V25.8662L43.0773 15.9349V26.3138C43.0773 26.4063 43.0955 26.4979 43.1309 26.5834C43.1663 26.6689 43.2182 26.7466 43.2836 26.812C43.3491 26.8774 43.4267 26.9293 43.5122 26.9647C43.5977 27.0001 43.6893 27.0183 43.7818 27.0183C43.8743 27.0183 43.9659 27.0001 44.0514 26.9647C44.1369 26.9293 44.2146 26.8774 44.28 26.812C44.3454 26.7466 44.3973 26.6689 44.4327 26.5834C44.4681 26.4979 44.4863 26.4063 44.4863 26.3138V15.026C44.4864 14.9185 44.4618 14.8125 44.4145 14.7159C44.3673 14.6194 44.2985 14.535 44.2135 14.4691C44.1286 14.4033 44.0297 14.3577 43.9244 14.336C43.8191 14.3143 43.7103 14.317 43.6062 14.3438L40.1609 15.2309L39.5059 7.96861L39.5058 7.96796L39.2034 4.61574C39.1876 4.44056 39.1069 4.27763 38.9771 4.15897C38.8472 4.04031 38.6777 3.9745 38.5018 3.97449H33.8505C33.6746 3.9745 33.5051 4.04031 33.3753 4.15897C33.2454 4.27763 33.1647 4.44056 33.1489 4.61574L32.8465 7.96814V7.96824L32.002 17.3317L27.9984 18.3626L27.2938 10.55V10.5496L26.9915 7.19733C26.9757 7.02215 26.8949 6.85922 26.7651 6.74056C26.6353 6.6219 26.4657 6.5561 26.2898 6.55608H21.6384C21.4625 6.5561 21.293 6.6219 21.1632 6.74056C21.0334 6.85922 20.9526 7.02215 20.9368 7.19733L20.6345 10.5496L20.6344 10.5502L19.7379 20.4897L15.8359 21.4944L15.0816 13.1317V13.1312L14.7792 9.77902C14.7634 9.60384 14.6827 9.44091 14.5528 9.32225C14.423 9.20359 14.2535 9.13778 14.0776 9.13777H9.42637C9.25049 9.13778 9.08097 9.20359 8.95113 9.32225C8.8213 9.44091 8.74055 9.60384 8.72475 9.77902L8.07694 16.9608C8.06104 17.1464 8.11931 17.3308 8.23899 17.4736C8.35868 17.6163 8.53003 17.7059 8.71557 17.7226C8.90111 17.7394 9.08573 17.6819 9.22904 17.5629C9.37235 17.4439 9.46269 17.273 9.48028 17.0875L9.76706 13.9081H13.7371L14.4534 21.8506L8.92228 23.2747L9.22697 19.8971C9.24286 19.7115 9.1846 19.5271 9.06491 19.3843C8.94523 19.2416 8.77388 19.152 8.58834 19.1353C8.4028 19.1185 8.21817 19.176 8.07486 19.295C7.93155 19.414 7.84122 19.585 7.82363 19.7704L7.47394 23.6476L3.62719 24.638C3.47586 24.677 3.34179 24.7652 3.24605 24.8887C3.15032 25.0122 3.09836 25.164 3.09834 25.3202V39.7152H2.15522C0.966844 39.7151 0 40.6819 0 41.8703C0 43.0587 0.966844 44.0255 2.15522 44.0255H22.8517C22.9442 44.0255 23.0358 44.0073 23.1213 43.9719C23.2067 43.9365 23.2844 43.8846 23.3498 43.8192C23.4153 43.7537 23.4672 43.6761 23.5026 43.5906C23.538 43.5051 23.5562 43.4135 23.5562 43.321C23.5562 43.2285 23.538 43.1369 23.5026 43.0514C23.4672 42.9659 23.4153 42.8882 23.3498 42.8228C23.2844 42.7574 23.2067 42.7055 23.1213 42.6701C23.0358 42.6347 22.9442 42.6165 22.8517 42.6165H2.15522C1.74375 42.6165 1.40897 42.2818 1.40897 41.8703C1.40897 41.4588 1.74366 41.1241 2.15522 41.1241H45.8448C46.2509 41.1241 46.591 41.4642 46.591 41.8703C46.591 42.2764 46.2509 42.6165 45.8448 42.6165H25.6697C25.5772 42.6165 25.4856 42.6347 25.4001 42.6701C25.3146 42.7055 25.2369 42.7574 25.1715 42.8228C25.1061 42.8882 25.0542 42.9659 25.0188 43.0514C24.9834 43.1369 24.9652 43.2285 24.9652 43.321C24.9652 43.4135 24.9834 43.5051 25.0188 43.5906C25.0542 43.6761 25.1061 43.7537 25.1715 43.8192C25.2369 43.8846 25.3146 43.9365 25.4001 43.9719C25.4856 44.0073 25.5772 44.0255 25.6697 44.0255H45.8448C47.0332 44.0255 48 43.0587 48 41.8703C48 40.6819 47.0332 39.7151 45.8448 39.7151ZM9.89381 12.4988L10.0699 10.5466H13.4336L13.6097 12.4988H9.89381ZM37.858 5.38355L38.0341 7.33571H34.3182L34.4943 5.38355H37.858ZM34.1912 8.74468H38.1612L38.7783 15.5868L33.4504 16.9587L34.1912 8.74468ZM25.6459 7.96505L25.8219 9.91721H22.106L22.282 7.96505H25.6459ZM21.9788 11.3263H25.949L26.6157 18.7186L21.1861 20.1166L21.9788 11.3263ZM9.25425 30.0147H17.1026V39.7152H9.25425V30.0147Z" fill="black"/>
<path d="M26.6768 25.3709C26.6768 25.1841 26.6026 25.0049 26.4704 24.8727C26.3383 24.7406 26.1591 24.6664 25.9723 24.6664H23.1586C22.9718 24.6664 22.7926 24.7406 22.6605 24.8727C22.5283 25.0049 22.4541 25.1841 22.4541 25.3709V28.8845C22.4541 29.0713 22.5283 29.2505 22.6605 29.3827C22.7926 29.5148 22.9718 29.589 23.1586 29.589H25.9723C26.1591 29.589 26.3383 29.5148 26.4704 29.3827C26.6026 29.2505 26.6768 29.0713 26.6768 28.8845V25.3709ZM25.2678 28.18H23.8633V26.0754H25.2678V28.18ZM25.9723 31.8581H23.1586C22.9718 31.8581 22.7926 31.9324 22.6605 32.0645C22.5283 32.1966 22.4541 32.3758 22.4541 32.5627V36.0762C22.4541 36.2631 22.5283 36.4423 22.6605 36.5744C22.7926 36.7065 22.9718 36.7808 23.1586 36.7808H25.9723C26.1591 36.7808 26.3383 36.7065 26.4704 36.5744C26.6026 36.4423 26.6768 36.2631 26.6768 36.0762V32.5627C26.6768 32.3758 26.6026 32.1966 26.4704 32.0645C26.3383 31.9324 26.1591 31.8581 25.9723 31.8581ZM25.2678 35.3718H23.8633V33.2672H25.2678V35.3718ZM33.8087 25.3709C33.8087 25.1841 33.7345 25.0049 33.6024 24.8727C33.4702 24.7406 33.291 24.6664 33.1042 24.6664H30.2905C30.1036 24.6664 29.9244 24.7406 29.7923 24.8727C29.6602 25.0049 29.5859 25.1841 29.5859 25.3709V28.8845C29.5859 29.0713 29.6602 29.2505 29.7923 29.3827C29.9244 29.5148 30.1036 29.589 30.2905 29.589H33.1042C33.291 29.589 33.4702 29.5148 33.6024 29.3827C33.7345 29.2505 33.8087 29.0713 33.8087 28.8845V25.3709ZM32.3998 28.18H30.9951V26.0754H32.3998V28.18ZM33.1043 31.8581H30.2906C30.1037 31.8581 29.9245 31.9324 29.7924 32.0645C29.6603 32.1966 29.586 32.3758 29.586 32.5627V36.0762C29.586 36.2631 29.6603 36.4423 29.7924 36.5744C29.9245 36.7065 30.1037 36.7808 30.2906 36.7808H33.1043C33.2911 36.7808 33.4703 36.7065 33.6025 36.5744C33.7346 36.4423 33.8088 36.2631 33.8088 36.0762V32.5627C33.8088 32.3758 33.7346 32.1966 33.6024 32.0645C33.4703 31.9324 33.2911 31.8582 33.1043 31.8581ZM32.3998 35.3718H30.9951V33.2672H32.3998V35.3718ZM40.9407 25.3709C40.9407 25.1841 40.8664 25.0049 40.7343 24.8727C40.6022 24.7406 40.423 24.6664 40.2361 24.6664H37.4225C37.2357 24.6664 37.0565 24.7406 36.9243 24.8727C36.7922 25.0049 36.718 25.1841 36.718 25.3709V28.8845C36.718 29.0713 36.7922 29.2505 36.9243 29.3827C37.0565 29.5148 37.2357 29.589 37.4225 29.589H40.2361C40.423 29.589 40.6022 29.5148 40.7343 29.3827C40.8664 29.2505 40.9407 29.0713 40.9407 28.8845V25.3709ZM39.5316 28.18H38.127V26.0754H39.5316V28.18ZM40.2361 31.8581H37.4225C37.2357 31.8581 37.0565 31.9324 36.9243 32.0645C36.7922 32.1966 36.718 32.3758 36.718 32.5627V36.0762C36.718 36.2631 36.7922 36.4423 36.9243 36.5744C37.0565 36.7065 37.2357 36.7808 37.4225 36.7808H40.2361C40.423 36.7808 40.6022 36.7065 40.7343 36.5744C40.8664 36.4423 40.9407 36.2631 40.9407 36.0762V32.5627C40.9407 32.3758 40.8664 32.1966 40.7343 32.0645C40.6022 31.9324 40.423 31.8581 40.2361 31.8581ZM39.5316 35.3718H38.127V33.2672H39.5316V35.3718Z" fill="black"/>
</svg>
