<svg width="48" height="48" viewBox="0 0 48 48" fill="none" xmlns="http://www.w3.org/2000/svg">
<g clip-path="url(#clip0_16897_1004)">
<path d="M5.16309 17.6417L7.5312 43.991" stroke="black" stroke-width="2" stroke-miterlimit="10" stroke-linecap="round" stroke-linejoin="round"/>
<path d="M42.8369 17.6416L40.4688 43.9909" stroke="black" stroke-width="2" stroke-miterlimit="10" stroke-linecap="round" stroke-linejoin="round"/>
<mask id="mask0_16897_1004" style="mask-type:luminance" maskUnits="userSpaceOnUse" x="0" y="0" width="48" height="48">
<path d="M46.9999 46.9999V1.00002H1L1 46.9999H46.9999Z" fill="white" stroke="white" stroke-width="2"/>
</mask>
<g mask="url(#mask0_16897_1004)">
<path d="M34.823 7.64236L26.8601 1.65287C25.1765 0.386314 22.8234 0.386314 21.1396 1.65287L1.33603 16.549C1.13947 16.6968 0.979968 16.8883 0.870128 17.1084C0.760288 17.3285 0.703114 17.5711 0.703125 17.817C0.703125 19.1257 2.19796 19.8717 3.24374 19.0851L23.0465 4.1888C23.6081 3.76599 24.3917 3.76599 24.9534 4.1888L44.756 19.0851C45.8018 19.8717 47.2967 19.1257 47.2967 17.817C47.2967 17.3184 47.0624 16.8487 46.6638 16.549L37.5027 9.65807" stroke="black" stroke-width="2" stroke-miterlimit="10" stroke-linecap="round" stroke-linejoin="round"/>
<path d="M18.1658 43.9915H45.6442C46.5569 43.9915 47.2967 44.7314 47.2967 45.644C47.2967 46.5567 46.5569 47.2966 45.6442 47.2966H2.35574C1.44309 47.2966 0.703125 46.5568 0.703125 45.6441C0.703125 44.7315 1.44309 43.9915 2.35574 43.9915H14.8846" stroke="black" stroke-width="2" stroke-miterlimit="10" stroke-linecap="round" stroke-linejoin="round"/>
<path d="M35.8769 26.4373C35.8769 32.9967 30.5594 38.3142 23.9999 38.3142C17.4405 38.3142 12.123 32.9967 12.123 26.4373C12.123 19.878 17.4405 14.5605 23.9999 14.5605C30.5594 14.5605 35.8769 19.878 35.8769 26.4373Z" stroke="black" stroke-width="2" stroke-miterlimit="10" stroke-linecap="round" stroke-linejoin="round"/>
<path d="M29.6318 26.4373C29.6318 26.2873 29.6255 26.1388 29.6136 25.9919C29.5964 25.7807 29.7048 25.5793 29.8884 25.4733L31.7201 24.4157C31.7831 24.3794 31.8382 24.3311 31.8824 24.2734C31.9267 24.2158 31.9591 24.15 31.9779 24.0799C31.9967 24.0097 32.0015 23.9365 31.992 23.8645C31.9825 23.7925 31.959 23.723 31.9226 23.6601L30.3664 20.9646C30.3301 20.9017 30.2817 20.8465 30.2241 20.8023C30.1665 20.7581 30.1007 20.7257 30.0305 20.7068C29.9604 20.688 29.8872 20.6832 29.8152 20.6927C29.7431 20.7022 29.6737 20.7258 29.6108 20.7621L27.7745 21.8223C27.5898 21.929 27.3616 21.9155 27.1859 21.7946C26.946 21.6295 26.6936 21.4834 26.431 21.3574C26.2363 21.264 26.1092 21.0709 26.1092 20.855V18.7405C26.1092 18.6678 26.0949 18.5959 26.0671 18.5288C26.0393 18.4617 25.9986 18.4007 25.9472 18.3493C25.8958 18.298 25.8348 18.2572 25.7677 18.2294C25.7006 18.2017 25.6287 18.1874 25.556 18.1874H22.4436C22.371 18.1874 22.299 18.2017 22.2319 18.2295C22.1648 18.2573 22.1039 18.298 22.0525 18.3494C22.0011 18.4007 21.9604 18.4617 21.9326 18.5288C21.9048 18.5959 21.8905 18.6679 21.8905 18.7405V20.855C21.8905 21.0709 21.7634 21.264 21.5686 21.3574C21.3061 21.4834 21.0537 21.6296 20.8137 21.7946C20.638 21.9155 20.4099 21.929 20.2251 21.8223L18.3888 20.7621C18.2618 20.6888 18.1108 20.6689 17.9691 20.7069C17.8275 20.7449 17.7067 20.8376 17.6333 20.9646L16.0771 23.6601C16.0407 23.723 16.0172 23.7924 16.0077 23.8645C15.9982 23.9365 16.003 24.0097 16.0218 24.0798C16.0406 24.15 16.073 24.2158 16.1172 24.2734C16.1614 24.331 16.2166 24.3794 16.2795 24.4157L18.1112 25.4733C18.2948 25.5793 18.4033 25.7807 18.3861 25.9919C18.3741 26.1401 18.368 26.2887 18.3679 26.4373C18.3679 26.5873 18.3742 26.7358 18.3861 26.8827C18.4033 27.094 18.2948 27.2954 18.1112 27.4014L16.2795 28.459C16.2166 28.4953 16.1614 28.5436 16.1172 28.6013C16.073 28.6589 16.0406 28.7247 16.0218 28.7949C16.003 28.865 15.9982 28.9382 16.0077 29.0102C16.0172 29.0822 16.0407 29.1517 16.0771 29.2146L17.6333 31.9101C17.7067 32.0371 17.8275 32.1298 17.9691 32.1678C18.1108 32.2058 18.2618 32.1859 18.3888 32.1126L20.2251 31.0524C20.4099 30.9457 20.638 30.9592 20.8137 31.0801C21.0537 31.2451 21.3061 31.3913 21.5686 31.5173C21.7634 31.6106 21.8905 31.8038 21.8905 32.0196V34.1342C21.8905 34.2068 21.9048 34.2788 21.9326 34.3459C21.9604 34.413 22.0011 34.4739 22.0525 34.5253C22.1039 34.5767 22.1648 34.6174 22.2319 34.6452C22.299 34.673 22.371 34.6873 22.4436 34.6873H25.556C25.6287 34.6873 25.7006 34.673 25.7677 34.6452C25.8348 34.6174 25.8958 34.5767 25.9472 34.5253C25.9986 34.474 26.0393 34.413 26.0671 34.3459C26.0949 34.2788 26.1092 34.2068 26.1092 34.1342V32.0196C26.1092 31.8038 26.2363 31.6106 26.431 31.5173C26.6936 31.3913 26.946 31.2451 27.1859 31.0801C27.3616 30.9592 27.5898 30.9457 27.7745 31.0524L29.6108 32.1126C29.6737 32.1489 29.7431 32.1725 29.8152 32.182C29.8872 32.1914 29.9604 32.1866 30.0305 32.1678C30.1007 32.149 30.1665 32.1166 30.2241 32.0724C30.2817 32.0281 30.3301 31.973 30.3664 31.9101L31.9226 29.2146C31.959 29.1517 31.9825 29.0822 31.992 29.0102C32.0015 28.9382 31.9967 28.865 31.9779 28.7948C31.9591 28.7247 31.9267 28.6589 31.8824 28.6013C31.8382 28.5436 31.7831 28.4953 31.7201 28.459L29.8884 27.4014C29.7048 27.2954 29.5964 27.094 29.6136 26.8827C29.6255 26.7358 29.6318 26.5873 29.6318 26.4373Z" stroke="black" stroke-width="2" stroke-miterlimit="10" stroke-linecap="round" stroke-linejoin="round"/>
<path d="M27.007 26.4374C27.007 28.0984 25.6605 29.4448 23.9996 29.4448C22.3386 29.4448 20.9922 28.0984 20.9922 26.4374C20.9922 24.7765 22.3386 23.43 23.9996 23.43C25.6605 23.43 27.007 24.7765 27.007 26.4374Z" stroke="black" stroke-width="2" stroke-miterlimit="10" stroke-linecap="round" stroke-linejoin="round"/>
</g>
</g>
<defs>
<clipPath id="clip0_16897_1004">
<rect width="48" height="48" fill="white"/>
</clipPath>
</defs>
</svg>
