<svg width="48" height="48" viewBox="0 0 48 48" fill="none" xmlns="http://www.w3.org/2000/svg">
<g clip-path="url(#clip0_16900_1123)">
<path d="M6.4018 48H41.5994C42.9248 48 43.9992 46.9255 43.9992 45.6002V18.6051L44.2832 18.7931C44.5414 18.9714 44.8332 19.0953 45.1409 19.1572C45.4485 19.2191 45.7655 19.2177 46.0726 19.1531C46.3886 19.0877 46.6881 18.9591 46.9532 18.775C47.2182 18.591 47.4433 18.3552 47.6149 18.0819L47.6197 18.0739C48.3226 16.9416 48.0149 15.4571 46.9198 14.6974L25.3173 0.403212C24.9295 0.140451 24.4718 0 24.0034 0C23.5349 0 23.0773 0.140451 22.6895 0.403212L1.07491 14.7047C-0.0179352 15.4669 -0.321776 16.9518 0.383779 18.082C0.553503 18.355 0.776836 18.5908 1.04027 18.775C1.30371 18.9593 1.60178 19.0882 1.91646 19.1539C2.0763 19.1861 2.239 19.2022 2.40202 19.202C2.86821 19.2026 3.32385 19.0633 3.70994 18.802L4.0019 18.606V45.6002C4.0019 46.9255 5.07636 48 6.4018 48ZM42.3993 45.6002C42.3993 46.042 42.0411 46.4001 41.5993 46.4001H6.4018C5.95998 46.4001 5.60186 46.042 5.60186 45.6002V17.5484L24.0006 5.38925L42.3993 17.5484V45.6002ZM2.81879 17.4701C2.73593 17.5274 2.64224 17.5671 2.54348 17.5869C2.44471 17.6068 2.34293 17.6062 2.24439 17.5853C2.1404 17.5636 2.04194 17.5209 1.95502 17.4598C1.86809 17.3987 1.79454 17.3206 1.73886 17.2301C1.61686 17.0398 1.57218 16.8101 1.61396 16.5879C1.65573 16.3657 1.78081 16.1679 1.96361 16.0349L23.579 1.73277C23.7033 1.64832 23.8502 1.60317 24.0006 1.6032C24.1539 1.60384 24.3035 1.65037 24.4302 1.73682L46.0311 16.0311C46.2153 16.1627 46.3422 16.3599 46.3856 16.5822C46.4291 16.8044 46.3858 17.0349 46.2647 17.2262C46.2076 17.3178 46.1327 17.3969 46.0443 17.4588C45.9559 17.5206 45.8559 17.564 45.7503 17.5862C45.6511 17.6059 45.5489 17.6053 45.4499 17.5844C45.3509 17.5635 45.2571 17.5227 45.1743 17.4646L24.4421 3.76298C24.3113 3.67754 24.1584 3.63205 24.0022 3.63205C23.8459 3.63205 23.6931 3.67754 23.5622 3.76298L2.81879 17.4701Z" fill="black"/>
<path d="M17.3177 15.0958C16.3887 14.1712 14.887 14.1712 13.958 15.0958L9.49752 19.5563C8.57244 20.4851 8.57244 21.9871 9.49752 22.916L16.7362 30.1611L12.2837 34.6145C12.1871 34.7102 12.1169 34.8292 12.0797 34.9601L10.215 41.4884C10.1496 41.7169 10.1382 41.9575 10.1816 42.1912C10.225 42.4248 10.322 42.6452 10.4651 42.835C10.6082 43.0248 10.7934 43.1787 11.0061 43.2847C11.2188 43.3907 11.4532 43.4459 11.6909 43.4459C11.8335 43.4456 11.9753 43.4257 12.1125 43.3867L18.6409 41.5205C18.7717 41.4833 18.8907 41.413 18.9865 41.3165L23.4406 36.8656L30.6809 44.1067C31.6102 45.0309 33.1114 45.0309 34.0406 44.1067L38.5011 39.6462C39.4262 38.7173 39.4262 37.2153 38.5011 36.2865L31.2648 29.0413L37.39 22.9162C37.6844 22.6222 37.9179 22.2731 38.0773 21.8887C38.2367 21.5044 38.3187 21.0924 38.3187 20.6764C38.3187 20.2603 38.2367 19.8483 38.0773 19.464C37.9179 19.0797 37.6844 18.7305 37.39 18.4365L35.1597 16.2063C34.8663 15.9112 34.5173 15.6773 34.1328 15.5182C33.7483 15.359 33.336 15.2778 32.9199 15.2792C32.5039 15.2778 32.0917 15.3589 31.7072 15.5179C31.3227 15.6769 30.9736 15.9106 30.6801 16.2055L24.5605 22.3371L17.3177 15.0958ZM14.5244 39.0766C14.0538 38.6105 13.4908 38.2481 12.8717 38.0127L13.3693 36.2696L16.1435 37.4583L17.3322 40.2325L15.5892 40.7301C15.3535 40.1107 14.9908 39.5474 14.5244 39.0766ZM17.7009 37.0319L29.5761 25.1567L31.2328 26.8134L18.6945 39.3509L17.7009 37.0319ZM27.9202 21.2378L29.5769 19.5811L34.0215 24.0256L32.364 25.6815L27.9202 21.2378ZM28.4458 24.0256L16.5698 35.9007L14.2499 34.9072L26.7882 22.3689L28.4458 24.0256ZM10.6286 21.7857C10.3254 21.4821 10.3254 20.9902 10.6286 20.6866L15.0891 16.2261C15.3927 15.9228 15.8846 15.9228 16.1882 16.2261L17.8529 17.8908L16.1882 19.5555C16.0861 19.6542 16.0121 19.7783 15.9738 19.915C15.9355 20.0517 15.9342 20.1961 15.9702 20.3335C16.0061 20.4708 16.078 20.5961 16.1783 20.6965C16.2787 20.7969 16.404 20.8688 16.5413 20.9048C16.6787 20.9408 16.8232 20.9395 16.9599 20.9012C17.0966 20.8628 17.2207 20.7888 17.3193 20.6867L18.984 19.022L20.6407 20.6802L19.5336 21.7874C19.4315 21.886 19.3575 22.0101 19.3192 22.1468C19.2809 22.2835 19.2796 22.4279 19.3156 22.5653C19.3515 22.7026 19.4234 22.8279 19.5238 22.9283C19.6241 23.0288 19.7494 23.1006 19.8868 23.1366C20.0241 23.1726 20.1686 23.1713 20.3053 23.133C20.442 23.0947 20.5661 23.0206 20.6647 22.9185L21.7719 21.8114L23.4286 23.4681L17.8689 29.0277L10.6286 21.7857ZM11.7854 41.8164L12.4253 39.5605C13.1522 39.8672 13.7306 40.4456 14.0372 41.1725L11.7854 41.8164ZM31.7904 31.8315L30.6833 32.9386C30.5812 33.0372 30.5072 33.1613 30.4688 33.298C30.4305 33.4347 30.4293 33.5791 30.4652 33.7165C30.5012 33.8538 30.573 33.9792 30.6734 34.0796C30.7738 34.18 30.8991 34.2519 31.0364 34.2879C31.1738 34.3238 31.3182 34.3226 31.455 34.2842C31.5917 34.2459 31.7157 34.1718 31.8144 34.0697L32.9215 32.961L34.5782 34.6177L32.9135 36.2824C32.8114 36.3811 32.7374 36.5051 32.6991 36.6418C32.6608 36.7785 32.6595 36.923 32.6955 37.0603C32.7314 37.1977 32.8033 37.323 32.9036 37.4234C33.004 37.5238 33.1293 37.5957 33.2666 37.6317C33.404 37.6677 33.5485 37.6664 33.6852 37.6281C33.8219 37.5897 33.946 37.5157 34.0446 37.4135L35.7093 35.7488L37.3732 37.4135C37.6764 37.7171 37.6764 38.209 37.3732 38.5126L32.9127 42.9731C32.6091 43.2764 32.1172 43.2764 31.8136 42.9731L24.5733 35.7328L30.133 30.1732L31.7904 31.8315ZM32.9207 16.8821C33.1264 16.8814 33.3302 16.9216 33.5202 17.0003C33.7103 17.0789 33.8828 17.1946 34.0278 17.3404L36.258 19.5707C36.8687 20.1822 36.8687 21.1726 36.258 21.7841L35.1517 22.8945L30.7072 18.4499L31.8143 17.3428C31.9591 17.1967 32.1314 17.0807 32.3213 17.0016C32.5113 16.9225 32.715 16.8819 32.9207 16.8821Z" fill="black"/>
</g>
<defs>
<clipPath id="clip0_16900_1123">
<rect width="48" height="48" fill="white"/>
</clipPath>
</defs>
</svg>
