<svg width="48" height="48" viewBox="0 0 48 48" fill="none" xmlns="http://www.w3.org/2000/svg">
<g clip-path="url(#clip0_16897_1031)">
<path d="M30.6619 26.7356C30.3853 26.4456 30.0147 26.2613 29.6207 26.2089C29.3467 24.5662 28.5843 23.02 27.4348 21.8013C27.3714 21.7341 27.2954 21.68 27.2111 21.6422C27.1268 21.6043 27.0358 21.5835 26.9435 21.5808C26.8511 21.5781 26.7591 21.5936 26.6727 21.6265C26.5864 21.6593 26.5073 21.7089 26.4401 21.7723C26.3044 21.9005 26.2251 22.0773 26.2197 22.2639C26.2142 22.4505 26.2831 22.6316 26.4112 22.7674C27.311 23.7213 27.9259 24.9162 28.1862 26.1921H7.38439C7.19975 26.1951 7.02369 26.2705 6.89418 26.4022C6.76467 26.5338 6.69209 26.7111 6.69209 26.8958C6.69209 27.0804 6.76467 27.2577 6.89418 27.3893C7.02369 27.521 7.19975 27.5964 7.38439 27.5994H28.9923C28.9948 27.5994 28.9974 27.5998 29 27.5998L29.008 27.5995H29.3918C29.5215 27.5995 29.6049 27.6668 29.6434 27.7068C29.6818 27.7471 29.7452 27.8343 29.7394 27.9602L28.9066 44.1624H25.796C25.7035 44.1624 25.612 44.1805 25.5266 44.2159C25.4412 44.2512 25.3636 44.303 25.2983 44.3684C25.2329 44.4337 25.181 44.5113 25.1457 44.5966C25.1103 44.682 25.0921 44.7735 25.0921 44.8659C25.0921 45.0526 25.1662 45.2317 25.2982 45.3637C25.4302 45.4957 25.6093 45.5698 25.796 45.5698H28.8714V46.3901C28.8714 46.5019 28.7806 46.5926 28.6693 46.5926H2.57164C2.51795 46.5926 2.46647 46.5712 2.4285 46.5333C2.39054 46.4953 2.36919 46.4438 2.36914 46.3901V45.5698H22.8875C22.98 45.5698 23.0715 45.5516 23.1568 45.5162C23.2422 45.4808 23.3198 45.429 23.3851 45.3636C23.4505 45.2983 23.5023 45.2207 23.5376 45.1353C23.5729 45.0499 23.5911 44.9584 23.591 44.8659C23.591 44.6794 23.5169 44.5004 23.385 44.3685C23.2531 44.2366 23.0741 44.1624 22.8875 44.1624H2.33398L1.50148 27.9661C1.49882 27.9189 1.50586 27.8716 1.52218 27.8272C1.5385 27.7828 1.56374 27.7422 1.59636 27.7079C1.62873 27.6735 1.66784 27.646 1.71125 27.6273C1.75466 27.6086 1.80146 27.599 1.84873 27.5992H2.23283C2.23583 27.5992 2.23873 27.5995 2.24126 27.5995C2.24379 27.5995 2.24642 27.5992 2.24895 27.5992H4.48142C4.57384 27.5992 4.66536 27.581 4.75075 27.5457C4.83615 27.5104 4.91375 27.4586 4.97911 27.3932C5.04448 27.3279 5.09633 27.2503 5.13171 27.165C5.16709 27.0796 5.18529 26.9881 5.18529 26.8957C5.18529 26.709 5.11114 26.5299 4.97913 26.3979C4.84713 26.2659 4.6681 26.1918 4.48142 26.1918H3.05464C3.34686 24.7467 4.08739 23.4258 5.1882 22.4137C6.48898 21.2175 8.17901 20.5587 9.94714 20.5587H11.895C12.2531 22.4714 13.9446 23.9312 15.9512 23.9312C17.9569 23.9312 19.648 22.4715 20.0059 20.5587H21.2942C22.425 20.5587 23.5046 20.8187 24.5029 21.3318C24.6022 21.3828 24.7123 21.4094 24.824 21.4094C24.9535 21.4096 25.0805 21.374 25.1911 21.3065C25.3016 21.239 25.3913 21.1423 25.4503 21.0271C25.5356 20.8611 25.5514 20.6681 25.4943 20.4904C25.4373 20.3127 25.312 20.165 25.146 20.0798C23.9638 19.4725 22.6319 19.1513 21.2945 19.1513H20.4536C22.4503 17.7184 23.7544 15.3794 23.7544 12.7398V6.70125C23.7544 3.00609 20.7481 0 17.0527 0L14.6764 0C10.9813 0 7.97511 3.00619 7.97511 6.70125V12.7397C7.97511 15.379 9.27917 17.718 11.2757 19.151H9.94714C7.82529 19.151 5.79683 19.942 4.2357 21.3775C2.84004 22.6608 1.92711 24.3581 1.62129 26.2087C1.22436 26.261 0.851513 26.4473 0.574295 26.7403C0.244295 27.0891 0.0700135 27.564 0.0963572 28.0408L0.962139 44.8843L0.962139 46.3901C0.962139 47.2778 1.68429 48 2.57164 48H28.6697C29.5569 48 30.2792 47.2778 30.2792 46.3901V44.8843L31.1452 28.0294C31.1559 27.7923 31.1186 27.5555 31.0355 27.3332C30.9524 27.1109 30.8254 26.9076 30.6619 26.7356ZM15.9512 22.5238C14.5884 22.5238 13.4462 21.502 13.2595 20.1852C14.0966 20.4794 14.9775 20.6296 15.8647 20.6294C16.8167 20.6299 17.7607 20.4572 18.6508 20.1196C18.4933 21.468 17.3355 22.5238 15.9512 22.5238ZM9.38239 6.70125C9.38239 3.78225 11.7573 1.40737 14.6764 1.40737H17.0527C19.9717 1.40737 22.3466 3.78225 22.3466 6.70125V7.94569C21.5447 7.18509 20.4691 6.71119 19.3063 6.71119H18.6391V5.93156C18.6391 5.54259 18.3242 5.22769 17.9357 5.22769C17.5472 5.22769 17.2318 5.54269 17.2318 5.93156V6.71119L12.4231 6.71119C11.2482 6.71119 10.1785 7.16897 9.38239 7.91569V6.70125ZM9.38239 12.7397V11.1592C9.38239 9.48263 10.7465 8.11856 12.4231 8.11856H19.3064C20.9543 8.11856 22.3467 9.51084 22.3467 11.1592V12.7398C22.3467 16.314 19.439 19.2217 15.8647 19.2217C12.2905 19.2217 9.38239 16.314 9.38239 12.7398V12.7397Z" fill="black"/>
<path d="M18.4797 36.4109C18.4797 34.834 17.1972 33.5511 15.6204 33.5511C14.0435 33.5511 12.7606 34.834 12.7606 36.4109C12.7606 37.9878 14.0435 39.2706 15.6204 39.2706C17.1972 39.2706 18.4797 37.9878 18.4797 36.4109ZM14.1684 36.4109C14.1684 35.6103 14.8195 34.9589 15.6204 34.9589C16.421 34.9589 17.0724 35.6104 17.0724 36.4109C17.0724 37.2118 16.4209 37.8629 15.6204 37.8629C14.8195 37.8629 14.1684 37.2118 14.1684 36.4109ZM13.251 13.4564C13.251 13.856 12.9269 14.18 12.5274 14.18C12.1278 14.18 11.8037 13.856 11.8037 13.4564C11.8037 13.0568 12.1278 12.7331 12.5274 12.7331C12.9269 12.7331 13.251 13.0568 13.251 13.4564ZM19.871 13.4564C19.871 13.856 19.5469 14.18 19.1473 14.18C18.7478 14.18 18.4238 13.856 18.4238 13.4564C18.4238 13.0568 18.7479 12.7331 19.1473 12.7331C19.5468 12.7331 19.871 13.0568 19.871 13.4564ZM14.7411 16.871C15.0909 17.0963 15.498 17.2165 15.9141 17.2174C15.931 17.2174 15.9481 17.2174 15.965 17.217C16.5601 17.2024 16.9925 16.9438 17.1976 16.7911C17.344 16.6784 17.4401 16.5127 17.4654 16.3297C17.4906 16.1467 17.443 15.9612 17.3326 15.813C17.2223 15.6649 17.0581 15.5661 16.8756 15.5379C16.693 15.5098 16.5067 15.5545 16.3569 15.6624C16.2331 15.7542 16.0842 15.8057 15.9302 15.8101C15.7317 15.8148 15.579 15.7368 15.5065 15.6899C15.3498 15.5884 15.1593 15.5533 14.9768 15.5922C14.7943 15.6311 14.6347 15.741 14.5331 15.8975C14.4317 16.0542 14.3965 16.2448 14.4355 16.4273C14.4745 16.6099 14.5844 16.7694 14.7411 16.871ZM40.897 7.04295L30.1414 7.04295C29.9548 7.04295 29.7758 7.11709 29.6438 7.24906C29.5119 7.38103 29.4377 7.56001 29.4377 7.74664C29.4377 7.93327 29.5119 8.11226 29.6438 8.24422C29.7758 8.37619 29.9548 8.45033 30.1414 8.45033H40.897C40.9894 8.45038 41.0809 8.43222 41.1663 8.39689C41.2517 8.36155 41.3293 8.30974 41.3947 8.24441C41.46 8.17908 41.5119 8.10151 41.5472 8.01613C41.5826 7.93076 41.6008 7.83925 41.6008 7.74683C41.6009 7.65439 41.5827 7.56284 41.5473 7.47742C41.512 7.39201 41.4601 7.3144 41.3948 7.24903C41.3294 7.18366 41.2518 7.13182 41.1664 7.09646C41.081 7.0611 40.9894 7.04292 40.897 7.04295ZM30.1414 5.77255L35.2944 5.77255C35.479 5.76953 35.6551 5.69407 35.7846 5.56243C35.9141 5.43079 35.9867 5.25353 35.9867 5.06886C35.9867 4.8842 35.9141 4.70693 35.7846 4.57529C35.6551 4.44365 35.479 4.36819 35.2944 4.36517H30.1414C29.9547 4.36517 29.7757 4.43933 29.6437 4.57133C29.5117 4.70334 29.4375 4.88237 29.4375 5.06905C29.4375 5.16146 29.4557 5.25298 29.4911 5.33835C29.5265 5.42373 29.5783 5.5013 29.6437 5.56663C29.7091 5.63196 29.7867 5.68377 29.8721 5.71911C29.9575 5.75444 30.049 5.7726 30.1414 5.77255Z" fill="black"/>
<path d="M42.9665 1.44379L28.0712 1.44379C27.1092 1.44379 26.3262 2.22641 26.3262 3.18885V9.52757C26.3262 10.4896 27.1092 11.2725 28.0712 11.2725H28.7378V12.462C28.7378 12.837 28.9615 13.1717 29.3079 13.3153C29.4766 13.3855 29.6623 13.404 29.8416 13.3683C30.0208 13.3327 30.1853 13.2444 30.3142 13.1149L32.1567 11.2725H42.9665C43.9285 11.2725 44.7115 10.49 44.7115 9.52757V3.18885C44.7115 2.22679 43.9285 1.44379 42.9665 1.44379ZM43.3041 9.52757C43.3039 9.61705 43.2683 9.70282 43.205 9.76609C43.1418 9.82936 43.056 9.86499 42.9665 9.86516H32.1426C31.7757 9.86516 31.431 10.008 31.1715 10.2673L30.1454 11.2938V11.2385C30.1454 10.4812 29.529 9.86516 28.7716 9.86516H28.0711C27.9816 9.86501 27.8958 9.8294 27.8326 9.76612C27.7693 9.70285 27.7336 9.61707 27.7335 9.52757V3.18885C27.7335 3.09931 27.7691 3.01346 27.8324 2.95015C27.8958 2.88684 27.9816 2.85124 28.0711 2.85116L42.9663 2.85116C43.0559 2.85124 43.1417 2.88684 43.205 2.95015C43.2683 3.01346 43.3039 3.09931 43.304 3.18885L43.3041 9.52757Z" fill="black"/>
</g>
<defs>
<clipPath id="clip0_16897_1031">
<rect width="48" height="48" fill="white"/>
</clipPath>
</defs>
</svg>
