<svg width="48" height="48" viewBox="0 0 48 48" fill="none" xmlns="http://www.w3.org/2000/svg">
<g clip-path="url(#clip0_16897_981)">
<path d="M48.0843 24.0005C48.0844 23.866 48.0459 23.7342 47.9733 23.6209C47.9007 23.5076 47.7971 23.4176 47.6749 23.3614L35.3732 17.7064L47.6749 12.0514C48.2077 11.8065 48.2081 11.0187 47.6749 10.7737L24.378 0.0642627C24.2833 0.0208189 24.1801 -0.00106012 24.076 0.000204442C23.9718 0.001469 23.8692 0.0258456 23.7756 0.0715752L21.6659 1.10283C20.8529 1.50014 21.4648 2.76576 22.2837 2.3662L24.0935 1.48148L28.0657 3.30736L24.0576 5.1502L18.8929 2.78301C18.6348 2.6647 18.4011 2.56036 18.1192 2.68926L0.494156 10.7737C-0.0390937 11.0184 -0.0398437 11.8065 0.493781 12.0514L12.7955 17.7068L10.3844 18.8149C9.56184 19.1929 10.1445 20.4732 10.9717 20.0927L14.4405 18.4981C14.453 18.4927 14.4647 18.4858 14.4764 18.4795L23.7906 22.7609C23.8828 22.803 23.983 22.8248 24.0843 22.8248C24.1857 22.8248 24.2858 22.803 24.378 22.7609L33.6896 18.4806L45.6977 24.0005L24.0843 33.9358L2.47059 24.0005L7.19906 21.8266C8.02153 21.4488 7.43962 20.1681 6.612 20.5489L0.493406 23.3614C-0.0390936 23.6065 -0.0398437 24.3942 0.493406 24.6392L12.7955 30.2942L0.493406 35.9492C-0.0390936 36.1942 -0.0398437 36.982 0.493406 37.227L23.7906 47.9364C23.8829 47.9784 23.983 48.0001 24.0843 48.0001C24.1856 48.0001 24.2858 47.9784 24.378 47.9364L28.4092 46.083C29.2314 45.7052 28.6499 44.4245 27.8219 44.8053L24.0843 46.5236L2.47059 36.5882L14.479 31.0681L23.7906 35.3487C23.8829 35.3907 23.983 35.4124 24.0843 35.4124C24.1856 35.4124 24.2858 35.3907 24.378 35.3487L33.7318 31.0486C33.7861 31.0993 33.8481 31.1409 33.9156 31.172L45.6977 36.588L32.4156 42.6937C31.5931 43.0721 32.1757 44.352 33.003 43.9715L47.6749 37.227C48.2077 36.982 48.2081 36.1942 47.6749 35.9492L35.3731 30.2942L47.675 24.6392C47.7972 24.5831 47.9007 24.4931 47.9733 24.3799C48.0458 24.2667 48.0843 24.135 48.0843 24.0005ZM29.7492 18.744L25.7677 16.9136L30.1436 14.902L34.1108 16.7389L29.7492 18.744ZM14.0622 16.7411L18.0441 14.9108L22.4008 16.9136L18.4191 18.744L14.0622 16.7411ZM8.13544 14.0169L12.1173 12.1865L16.3606 14.137L12.3787 15.9673L8.13544 14.0169ZM12.5882 6.7732L16.5429 8.60423L12.1173 10.6389L8.14322 8.81189L12.5882 6.7732ZM18.2202 9.38095L22.4481 11.3387L18.0441 13.3632L13.8007 11.4127L18.2202 9.38095ZM40.0328 8.80861L36.0426 10.6429L31.6791 8.64305L35.676 6.80583L40.0328 8.80861ZM34.3572 11.4175L30.1459 13.3533L25.8048 11.3431L29.9939 9.41761L34.3572 11.4175ZM35.7903 15.9669L31.8234 14.13L36.0433 12.1902L40.0306 14.0176L35.7903 15.9669ZM24.1275 10.5664L19.8997 8.60902L24.0584 6.69708L28.3078 8.64492L24.1275 10.5664ZM19.7275 14.137L24.1253 12.1152L28.4664 14.1253L24.0843 16.1398L19.7275 14.137ZM41.7159 13.2431L37.7283 11.4157L41.7163 9.58242L45.6977 11.4127L41.7159 13.2431ZM29.7492 4.08108L33.9925 6.03192L29.9931 7.87036L25.7436 5.92242L29.7492 4.08108ZM18.2224 7.8323L14.2695 6.00201L18.4041 4.10573L22.3723 5.92467L18.2224 7.8323ZM6.45825 9.58495L10.4338 11.4127L6.45197 13.2431L2.472 11.4135L6.45825 9.58495ZM24.0843 21.3481L20.1025 19.5177L24.0843 17.6874L28.0658 19.5177L24.0843 21.3481Z" fill="black"/>
</g>
<defs>
<clipPath id="clip0_16897_981">
<rect width="48" height="48" fill="white"/>
</clipPath>
</defs>
</svg>
